<!-- icon666.com - MILLIONS vector ICONS FREE --><svg clip-rule="evenodd" fill-rule="evenodd" image-rendering="optimizeQuality" shape-rendering="geometricPrecision" text-rendering="geometricPrecision" viewBox="0 0 1707 1707" xmlns="http://www.w3.org/2000/svg"><g id="Layer_x0020_1"><g id="_373448976"><path d="m140 626h1491c13 0 23 11 23 24v1033c0 13-10 24-23 24h-1491c-12 0-23-11-23-24v-1033c0-13 11-24 23-24z" fill="#4d4d4d" fill-rule="nonzero" style="fill: rgb(0, 0, 0);"></path><path d="m1607 673h-1443v987h1443z" fill="#3e3e3e" fill-rule="nonzero" style="fill: rgb(18, 18, 18);"></path><path d="m1585 287-1439 385c-12 4-25-4-28-16 0-1 0-1 0-1l-65-240c-3-12 4-25 17-28 0-1 1-1 1-1l1438-385c13-4 26 4 29 16v1l64 240h1c3 12-5 25-17 29z" fill="#4d4d4d" fill-rule="nonzero" style="fill: rgb(0, 0, 0);"></path><g fill="#fff"><path d="m663 1385c-1-2-2-3-2-4-7-12-11-28-11-41 0 0 0-318 0-346 0-8 1-16 3-24 1 0 1-1 1-2 2-6 4-12 8-17 0-1 0-1 1-2 5-8 11-15 18-21 11-10 26-16 41-19 4-1 14-2 20-1l18 3c6 2 12 5 18 8 91 53 220 117 302 174 5 4 11 8 15 12l2 2c15 16 24 37 24 60 0 30-17 59-43 74-100 58-200 115-300 173-6 3-12 6-18 8-6 1-12 2-18 3-30 4-63-15-79-40z" fill-rule="nonzero" fill="#fff"></path><path d="m116 469 196 111 62-17-236-146-34 9z" fill="#fff"></path><path d="m378 352 237 147 62-17-237-146z" fill="#fff"></path><path d="m680 271 237 147 62-17-237-146z" fill="#fff"></path><path d="m983 190 236 147 62-17-236-146z" fill="#fff"></path><path d="m1285 109 237 147 29-8-9-34-198-121z" fill="#fff"></path></g></g></g></svg>