<!-- icon666.com - MILLIONS vector ICONS FREE --><svg id="Layer_1" viewBox="0 0 48 48" xmlns="http://www.w3.org/2000/svg" data-name="Layer 1"><path d="m29.9 39.64953 5.60837 4.51685a1.49909 1.49909 0 0 0 2.44163-1.16666v-7.50427a17.63254 17.63254 0 0 0 6.55-13.53328c0-10.14169-9.14168-18.46249-20.5-18.46249s-20.5 8.3208-20.5 18.46249 9.14167 18.4667 20.5 18.4667a22.44284 22.44284 0 0 0 5.9-.77934zm1.275-2.82491a1.50041 1.50041 0 0 0 -1.38747-.26246 19.50477 19.50477 0 0 1 -5.78753.8667c-9.61246 0-17.5-6.87917-17.5-15.46669 0-8.58338 7.88754-15.46249 17.5-15.46249s17.5 6.87911 17.5 15.46249a14.74228 14.74228 0 0 1 -5.97083 11.62911 1.49445 1.49445 0 0 0 -.57917 1.18345v5.0916z" fill-rule="evenodd" fill="#000000" style="fill: rgb(158, 158, 158);"></path></svg>