<!-- icon666.com - MILLIONS vector ICONS FREE --><svg id="Icon_1_" enable-background="new 0 0 100 100" viewBox="0 0 100 100" xmlns="http://www.w3.org/2000/svg"><path id="Compass_1_" d="m50 18c-17.645 0-32 14.355-32 32s14.355 32 32 32 32-14.355 32-32-14.355-32-32-32zm14.846 20.949-6 18c-.298.896-1.001 1.599-1.897 1.897l-18 6c-.311.104-.632.154-.949.154-.783 0-1.55-.307-2.121-.879-.804-.803-1.084-1.992-.725-3.07l6-18c.298-.896 1.001-1.599 1.897-1.897l18-6c1.077-.358 2.267-.079 3.069.725.805.803 1.085 1.992.726 3.07zm-9.846 11.051c0 2.761-2.239 5-5 5s-5-2.239-5-5 2.239-5 5-5 5 2.239 5 5z"></path></svg>