<!-- icon666.com - MILLIONS vector ICONS FREE --><svg version="1.1" id="Layer_1" xmlns="http://www.w3.org/2000/svg" xmlns:xlink="http://www.w3.org/1999/xlink" x="0px" y="0px" viewBox="0 0 512.001 512.001" style="enable-background:new 0 0 512.001 512.001;" xml:space="preserve"><g><g><path d="M494.411,0.783c-5.523,0.246-136.15,6.942-215.648,86.439l-55.935,55.935L95.072,121.623L0.001,216.694l127.757,21.533 l-7.213,7.213c-15.788,15.787-23.217,37.39-20.92,60.831c1.939,19.785,10.714,39.514,25.563,57.767l-35.972,35.972l22.775,22.775 l35.972-35.972c18.252,14.849,37.982,23.624,57.767,25.563c2.793,0.274,5.556,0.41,8.29,0.41c20.212,0,38.635-7.423,52.541-21.33 l7.212-7.212l21.533,127.757l95.071-95.071l-21.533-127.758l55.935-55.935c79.497-79.497,86.192-210.126,86.439-215.648L512,0 L494.411,0.783z M66.933,195.312l39.166-39.166l88.778,14.963l-39.167,39.167L66.933,195.312z M148.109,341.116 c-9.574-12.493-15.197-25.421-16.429-37.987c-0.741-7.553,0.199-14.714,2.672-21.107l36.425,36.425L148.109,341.116z M208.871,380.32c-12.567-1.231-25.496-6.855-37.987-16.43l22.669-22.669l36.425,36.425 C223.585,380.12,216.424,381.059,208.871,380.32z M316.689,445.067l-14.964-88.776l39.167-39.167l14.963,88.778L316.689,445.067z M402.004,210.462l-146.83,146.831l-38.846-38.845l50.577-50.577l-22.775-22.775l-50.577,50.577l-38.845-38.845l146.831-146.831 c10.205-10.205,21.501-19.067,33.359-26.763l93.886,93.886C421.082,188.961,412.216,200.25,402.004,210.462z M445.106,147.893 l-80.965-80.965c43.392-20.757,88.542-28.988,113.086-32.133C474.109,59.341,465.911,104.474,445.106,147.893z"></path></g></g><g><g><path d="M364.476,147.525c-18.902-18.903-49.66-18.903-68.562,0c-18.902,18.902-18.902,49.659,0,68.561 c9.451,9.452,21.866,14.177,34.281,14.177s24.83-4.725,34.281-14.177C383.378,197.183,383.378,166.427,364.476,147.525z M341.701,193.312c-6.345,6.343-16.666,6.343-23.012,0c-6.344-6.344-6.344-16.667,0-23.012c3.173-3.172,7.339-4.758,11.506-4.758 c4.167,0,8.334,1.587,11.506,4.758C348.045,176.644,348.045,186.968,341.701,193.312z"></path></g></g></svg>