<svg xmlns="http://www.w3.org/2000/svg" width="24" height="24" fill="none" viewBox="0 0 24 24" id="facebook-gaming"><path fill="url(#paint0_linear_1233_4299)" fill-rule="evenodd" d="M2 1C1.44772 1 1 1.44772 1 2V22C1 22.5523 1.44772 23 2 23H14C14.5523 23 15 22.5523 15 22V17C15 16.4477 14.5523 16 14 16H8V8H22C22.5523 8 23 7.55228 23 7V2C23 1.44772 22.5523 1 22 1H2ZM3 21V3H21V6H7C6.44772 6 6 6.44772 6 7V17C6 17.5523 6.44772 18 7 18H13V21H3ZM9.5 8.5C8.94772 8.5 8.5 8.94772 8.5 9.5V14.5C8.5 15.0523 8.94772 15.5 9.5 15.5H15.5V22C15.5 22.5523 15.9477 23 16.5 23H22C22.5523 23 23 22.5523 23 22V9.5C23 8.94772 22.5523 8.5 22 8.5H9.5ZM10.5 13.5V10.5H21V21H17.5V14.5C17.5 13.9477 17.0523 13.5 16.5 13.5H10.5Z" clip-rule="evenodd"></path><defs><linearGradient id="paint0_linear_1233_4299" x1="12" x2="12" y1="1" y2="23" gradientUnits="userSpaceOnUse"><stop stop-color="#57EAEA"></stop><stop offset="1" stop-color="#2BC9FF"></stop></linearGradient></defs></svg>