<svg xmlns="http://www.w3.org/2000/svg" width="24" height="24" fill="none" viewBox="0 0 24 24" id="facebook-page"><path fill="#CFD8DC" d="M3 1.25C2.58579 1.25 2.25 1.58579 2.25 2V22C2.25 22.4142 2.58579 22.75 3 22.75H6C6.41421 22.75 6.75 22.4142 6.75 22V2C6.75 1.58579 6.41421 1.25 6 1.25H3Z"></path><path fill="#FF884D" d="M21 15.25C21.4142 15.25 21.75 14.9142 21.75 14.5V5.5C21.75 5.08579 21.4142 4.75 21 4.75H15.5C15.1485 4.75 14.8441 4.99415 14.7679 5.3373L12.7679 14.3373C12.7185 14.5594 12.7726 14.7918 12.915 14.9693C13.0573 15.1467 13.2725 15.25 13.5 15.25H21Z"></path><path fill="#FFA071" d="M8.5 2.25C8.08579 2.25 7.75 2.58579 7.75 3V12C7.75 12.4142 8.08579 12.75 8.5 12.75H14C14.3515 12.75 14.6559 12.5059 14.7321 12.1627L16.7321 3.1627C16.7815 2.94063 16.7274 2.70816 16.585 2.5307C16.4427 2.35325 16.2275 2.25 16 2.25H8.5Z"></path></svg>