<!-- icon666.com - MILLIONS vector ICONS FREE --><svg xmlns="http://www.w3.org/2000/svg" viewBox="0 0 64 64"><g id="feed"><path d="M58.154,36.913A1,1,0,0,0,57.16,36H56v3.385a2.869,2.869,0,0,1,.468,1.377l1,11.985A3,3,0,0,1,54.48,56H9.52a3,3,0,0,1-2.986-3.255l1-12A2.826,2.826,0,0,1,8,39.385V36H6.84a.994.994,0,0,0-.993.908l-1.671,20A1,1,0,0,0,5.17,58H58.83a1,1,0,0,0,.994-1.085Z"></path><rect x="15" y="31" width="10" height="10" rx="1" ry="1"></rect><path d="M9.52,54H54.48a1,1,0,0,0,.994-1.084l-.553-6.631A2.976,2.976,0,0,1,53,47H11a2.97,2.97,0,0,1-1.921-.715l-.553,6.628a1,1,0,0,0,.259.765A.985.985,0,0,0,9.52,54ZM30,51h4v2H30Z"></path><path d="M11,45H53a1,1,0,0,0,1-1V10a1,1,0,0,0-1-1H11a1,1,0,0,0-1,1V44A1,1,0,0,0,11,45Zm35-2H35V41H46Zm5,0H47V41h4Zm0-6H44V35h7ZM41,34H34V32H45v2Zm2,1v2H32V35H43Zm8-1H46V32h5Zm0-8H47V24h4Zm0-6H44V18h7ZM41,17H34V15H45v2Zm2,1v2H32V18H43Zm8-1H46V15h5ZM29,12H51v2H29Zm0,3h4v2H29Zm0,3h2v2H29Zm0,3H51v2H29Zm17,3v2H35V24H46ZM29,24h5v2H29Zm0,5H51v2H29Zm0,3h4v2H29Zm0,3h2v2H29Zm0,3H51v2H29Zm0,3h5v2H29ZM13,15a3,3,0,0,1,3-3h8a3,3,0,0,1,3,3v8a3,3,0,0,1-3,3H16a3,3,0,0,1-3-3Zm0,17a3,3,0,0,1,3-3h8a3,3,0,0,1,3,3v8a3,3,0,0,1-3,3H16a3,3,0,0,1-3-3Z"></path><rect x="15" y="14" width="10" height="10" rx="1" ry="1"></rect></g></svg>