<!-- icon666.com - MILLIONS vector ICONS FREE --><svg id="Capa_1" enable-background="new 0 0 512 512" viewBox="0 0 512 512" xmlns="http://www.w3.org/2000/svg"><g><path d="m68.267 202.733v294.267c0 8.284 6.716 15 15 15h134.333c8.284 0 15-6.716 15-15v-294.267c0-8.284-6.716-15-15-15h-134.333c-8.285 0-15 6.716-15 15z" fill="#ff5173" style="fill: rgb(0, 175, 219);"></path><path d="m443.733 202.733v294.267c0 8.284-6.716 15-15 15h-134.333c-8.284 0-15-6.716-15-15v-294.267c0-8.284 6.716-15 15-15h134.333c8.285 0 15 6.716 15 15z" fill="#f0008d" style="fill: rgb(0, 157, 224);"></path><path d="m217.6 187.733h76.8v324.267h-76.8z" fill="#36cdfb" style="fill: rgb(251, 55, 75);"></path><path d="m256 187.733h38.4v324.267h-38.4z" fill="#00a3fb" style="fill: rgb(249, 93, 100);"></path><path d="m217.6 153.6h-168.467c-8.284 0-15 6.716-15 15v55.333c0 8.284 6.716 15 15 15h168.467c8.284 0 15-6.716 15-15v-55.333c0-8.284-6.716-15-15-15z" fill="#f0008d" style="fill: rgb(0, 157, 224);"></path><path d="m294.4 153.6h168.467c8.284 0 15 6.716 15 15v55.333c0 8.284-6.716 15-15 15h-168.467c-8.284 0-15-6.716-15-15v-55.333c0-8.284 6.716-15 15-15z" fill="#b3008c" style="fill: rgb(0, 116, 189);"></path><path d="m389.027 76.8c-14.131-24.474-45.466-32.87-69.94-18.739-7.782 4.489-14.25 10.957-18.739 18.739h-88.687c-4.489-7.782-10.957-14.251-18.739-18.739-24.473-14.131-55.808-5.735-69.939 18.739s-5.734 55.808 18.739 69.939c7.782 4.497 16.615 6.861 25.6 6.861l39.416 85.333h98.534l39.415-85.333c8.986 0 17.818-2.364 25.6-6.861 24.474-14.131 32.87-45.465 18.74-69.939z" fill="#00a3fb" style="fill: rgb(249, 93, 100);"></path><path d="m344.687 153.6c8.986 0 17.818-2.364 25.6-6.861 24.474-14.131 32.87-45.466 18.74-69.939-14.131-24.474-45.466-32.87-69.94-18.739-7.782 4.489-14.25 10.957-18.739 18.739h-44.348v162.133h49.272z" fill="#006be7" style="fill: rgb(255, 0, 89);"></path><path d="m256 153.6-44.339-76.8c-4.489-7.782-6.861-16.614-6.861-25.6 0-28.262 22.946-51.2 51.2-51.2 28.263 0 51.2 22.938 51.2 51.2 0 8.986-2.364 17.818-6.852 25.6z" fill="#006be7" style="fill: rgb(255, 0, 89);"></path><path d="m307.2 51.2c0-28.262-22.938-51.2-51.2-51.2v153.6l44.348-76.8c4.488-7.782 6.852-16.614 6.852-25.6z" fill="#3841b2" style="fill: rgb(255, 71, 71);"></path><path d="m256 153.6h-88.678l-49.263 85.333c-2.323 4.024-1.936 9.061.973 12.683 2.911 3.622 7.748 5.085 12.176 3.683l33.807-10.698 20.503 10.07c5.338 2.622 11.764.636 14.716-4.477z" fill="#36cdfb" style="fill: rgb(251, 55, 75);"></path><path d="m256 153.6h88.678l49.263 85.333c2.323 4.024 1.936 9.061-.973 12.683-2.911 3.622-7.748 5.085-12.176 3.683l-33.807-10.698-20.503 10.07c-5.338 2.622-11.764.636-14.716-4.477z" fill="#00a3fb" style="fill: rgb(249, 93, 100);"></path></g></svg>