<!-- icon666.com - MILLIONS vector ICONS FREE --><svg version="1.1" id="Capa_1" xmlns="http://www.w3.org/2000/svg" xmlns:xlink="http://www.w3.org/1999/xlink" x="0px" y="0px" viewBox="0 0 512 512" style="enable-background:new 0 0 512 512;" xml:space="preserve"><g><g><path d="M257,0C116.39,0,0,114.39,0,255s116.39,257,257,257s255-116.39,255-257S397.61,0,257,0z M257,437c-16.54,0-30-13.46-30-30 c0-16.54,13.46-30,30-30c16.53,0,30,13.46,30,30C287,423.54,273.53,437,257,437z M310.17,252.61 C295.21,263.6,287,292.63,287,307.12V315c0,16.54-13.47,30-30,30c-16.54,0-30-13.46-30-30v-7.88c0-33.65,17.38-80.68,47.71-102.89 C298.01,187.12,285.91,150,257,150c-16.54,0-30,13.46-30,30s-13.47,30-30,30c-16.54,0-30-13.46-30-30c0-49.63,40.37-90,90-90 s90,40.37,90,90C347,208.57,333.23,235.71,310.17,252.61z"></path></g></g></svg>