<!-- icon666.com - MILLIONS vector ICONS FREE --><svg id="Capa_1" enable-background="new 0 0 512 512" viewBox="0 0 512 512" xmlns="http://www.w3.org/2000/svg"><g><path d="m476.147 150.056-46.727 23.364-7.506 17.239-9.01-8.981v-41.29c0-31.926-25.881-57.807-57.807-57.807h-297.291c-16.175 0-30.798 6.643-41.29 17.349l-6.837 40.458v223.125c0 31.925 25.881 57.807 57.806 57.807h287.611l40.452-8.412c10.709-10.492 17.354-25.118 17.354-41.294v-41.29l99.098-8.26v-149.85c0-18.416-19.381-30.395-35.853-22.158z" fill="#ff7e92" style="fill: rgb(26, 26, 26);"></path><path d="m335.333 244.101c-35.207-33.793-79.989-54.166-128.882-54.166-44.6 0-85.781 16.952-119.392 45.58l-9.49 26.733c35.207 33.793 79.989 54.166 128.882 54.166 37.247 0 72.108-6.172 102.168-26.745 9.399-6.433 18.328-13.721 26.714-21.77 6.721-6.452 6.721-17.346 0-23.798z" fill="#fff"></path><path d="m239.484 256c0 5.911-1.552 11.459-4.272 16.259-5.674 10.015-16.428 14.183-28.761 14.183-18.243 0-30.673-12.198-30.673-30.441 0-12.31 4.375-23.047 14.359-28.729 4.813-2.739 10.381-4.303 16.314-4.303 18.244-.001 33.033 14.788 33.033 33.031z" fill="#ff7e92" style="fill: rgb(26, 26, 26);"></path><g fill="#ff5f7a"><path d="m57.806 412.903c-22.804 0-41.29-18.486-41.29-41.29v-271.683c-10.206 10.424-16.516 24.716-16.516 40.457v231.226c0 31.925 25.881 57.806 57.806 57.806h297.29c15.74 0 30.024-6.31 40.448-16.516z" fill="#ff5f7a" style="fill: rgb(43, 43, 43);"></path><path d="m512 339.785v-17.721l-56.027-11.205c-15.44-3.088-26.554-16.645-26.554-32.391v-105.049l-16.516 8.258v148.645l63.243 31.621c16.473 8.237 35.854-3.741 35.854-22.158z" fill="#ff5f7a" style="fill: rgb(43, 43, 43);"></path><path d="m218.839 276.645c-18.243 0-33.032-14.789-33.032-33.032 0-5.928 1.597-11.532 4.331-16.342-9.991 5.68-16.718 16.414-16.718 28.729 0 18.243 14.789 33.032 33.032 33.032 12.315 0 23.081-6.782 28.761-16.774-4.811 2.735-10.446 4.387-16.374 4.387z" fill="#ff5f7a" style="fill: rgb(43, 43, 43);"></path></g><path d="m206.155 305.965c-47.898-6.74-89.024-32.744-119.095-70.449-3.236 2.757-6.398 5.617-9.49 8.585-6.721 6.452-6.721 17.347 0 23.798 35.207 33.794 79.989 54.166 128.882 54.166 37.229 0 72.118-11.841 102.168-32.396-31.773 15.043-66.808 21.313-102.465 16.296z" fill="#ffdbde" style="fill: rgb(245, 245, 245);"></path></g></svg>