<svg xmlns="http://www.w3.org/2000/svg" xmlns:xlink="http://www.w3.org/1999/xlink" viewBox="0,0,256,256" width="50px" height="50px"><g fill="#d1d1d1" fill-rule="nonzero" stroke="none" stroke-width="1" stroke-linecap="butt" stroke-linejoin="miter" stroke-miterlimit="10" stroke-dasharray="" stroke-dashoffset="0" font-family="none" font-weight="none" font-size="none" text-anchor="none" style="mix-blend-mode: normal"><g transform="scale(5.12,5.12)"><path d="M25,5c-11.03516,0 -20,8.96484 -20,20c-0.00391,0.35938 0.18359,0.69531 0.49609,0.87891c0.3125,0.17969 0.69531,0.17969 1.00781,0c0.3125,-0.18359 0.5,-0.51953 0.49609,-0.87891c0,-9.95312 8.04688,-18 18,-18c6.24609,0 11.72656,3.17969 14.95703,8h-6.95703c-0.35937,-0.00391 -0.69531,0.18359 -0.87891,0.49609c-0.17969,0.3125 -0.17969,0.69531 0,1.00781c0.18359,0.3125 0.51953,0.5 0.87891,0.49609h10v-10c0.00391,-0.26953 -0.10156,-0.53125 -0.29297,-0.72266c-0.19141,-0.19141 -0.45312,-0.29687 -0.72266,-0.29297c-0.55078,0.01172 -0.99219,0.46484 -0.98437,1.01563v6.01172c-3.65234,-4.86328 -9.46094,-8.01172 -16,-8.01172zM43.98438,23.98438c-0.55078,0.01172 -0.99219,0.46484 -0.98437,1.01563c0,9.95313 -8.04687,18 -18,18c-6.24609,0 -11.73047,-3.17969 -14.95703,-8h6.95703c0.35938,0.00781 0.69531,-0.18359 0.87891,-0.49219c0.17969,-0.3125 0.17969,-0.69922 0,-1.01172c-0.18359,-0.30859 -0.51953,-0.5 -0.87891,-0.49609h-8.55469c-0.12891,-0.02344 -0.25781,-0.02344 -0.38672,0h-1.05859v10c-0.00391,0.35938 0.18359,0.69531 0.49609,0.87891c0.3125,0.17969 0.69531,0.17969 1.00781,0c0.3125,-0.18359 0.5,-0.51953 0.49609,-0.87891v-6.01562c3.64844,4.86328 9.46094,8.01563 16,8.01563c11.03516,0 20,-8.96484 20,-20c0.00391,-0.26953 -0.10156,-0.53125 -0.29297,-0.72266c-0.19141,-0.19141 -0.45312,-0.29687 -0.72266,-0.29297z"></path></g></g></svg>