<!-- icon666.com - MILLIONS vector ICONS FREE --><svg xmlns="http://www.w3.org/2000/svg" viewBox="0 0 64 64"><g id="promotion"><path d="M60.82,2.54a2.59,2.59,0,0,0-2.28-.44L25.85,12H10.4A3.23,3.23,0,0,0,7,15v5.09A6,6,0,0,0,2,26v1a6,6,0,0,0,5,5.91V38a3.23,3.23,0,0,0,3.4,3h.77L15,61.19A1,1,0,0,0,16,62H31a1,1,0,0,0,.92-1.39L23.52,41h2.32L58.5,51.89a2.78,2.78,0,0,0,.75.11,2.6,2.6,0,0,0,1.54-.52A3.08,3.08,0,0,0,62,49V5A3.09,3.09,0,0,0,60.82,2.54ZM4,27V26a4,4,0,0,1,3-3.86v8.72A4,4,0,0,1,4,27ZM9,38V15c0-.53.65-1,1.4-1H25V39H10.4C9.65,39,9,38.53,9,38ZM29.48,60H16.83L13.21,41h8.13ZM60,49a1.11,1.11,0,0,1-.4.89.54.54,0,0,1-.49.1L27,39.28V13.74L59.1,4a.56.56,0,0,1,.51.11A1.11,1.11,0,0,1,60,5Z" fill="#000000" style="fill: rgb(179, 179, 179);"></path></g></svg>