<!-- icon666.com - MILLIONS vector ICONS FREE --><svg id="Capa_1" enable-background="new 0 0 189.524 189.524" viewBox="0 0 189.524 189.524" xmlns="http://www.w3.org/2000/svg"><g><g><path d="m94.762 189.524c-52.253 0-94.762-42.513-94.762-94.762 0-52.253 42.509-94.762 94.762-94.762 52.249 0 94.762 42.509 94.762 94.762 0 52.249-42.513 94.762-94.762 94.762zm0-180.048c-47.025 0-85.286 38.261-85.286 85.286 0 47.029 38.261 85.286 85.286 85.286 47.029 0 85.286-38.256 85.286-85.286 0-47.025-38.257-85.286-85.286-85.286z" fill="#000000" style="fill: rgb(135, 135, 135);"></path></g><g><path clip-rule="evenodd" d="m90.024 92.799v-40.68c0-2.617 2.122-4.738 4.738-4.738s4.738 2.121 4.738 4.738v36.755c0 2.513.999 4.924 2.776 6.701l20.915 20.915c1.851 1.851 1.851 4.85 0 6.701s-4.85 1.851-6.701 0l-23.691-23.691c-1.776-1.777-2.775-4.188-2.775-6.701z" fill-rule="evenodd" fill="#000000" style="fill: rgb(135, 135, 135);"></path></g></g></svg>