<!-- icon666.com - MILLIONS vector ICONS FREE --><svg id="Layer_1" viewBox="0 0 32 32" xmlns="http://www.w3.org/2000/svg" data-name="Layer 1"><path d="m19.73305 3.75422a1.49632 1.49632 0 0 0 -1.13326-1.00022 13.484 13.484 0 0 0 -5.19962 0 1.49634 1.49634 0 0 0 -1.13317 1.00022l-.84165 2.5416a10.866 10.866 0 0 0 -1.54153.88756l-2.62071-.54169a1.50791 1.50791 0 0 0 -1.4374.48319 13.52811 13.52811 0 0 0 -2.59558 4.50412 1.50715 1.50715 0 0 0 .29587 1.48343l1.78317 2.00005a10.51277 10.51277 0 0 0 0 1.77485l-1.78317 2.00017a1.50715 1.50715 0 0 0 -.29587 1.48341 13.528 13.528 0 0 0 2.59558 4.50414 1.50735 1.50735 0 0 0 1.4374.4832l2.62069-.54156a10.89028 10.89028 0 0 0 1.54153.88742l.84165 2.54161a1.496 1.496 0 0 0 1.13319 1.00009 13.47378 13.47378 0 0 0 5.19962 0 1.496 1.496 0 0 0 1.13326-1.00009l.84159-2.54161a10.88757 10.88757 0 0 0 1.54159-.88742l2.62063.54156a1.50731 1.50731 0 0 0 1.4374-.4832 13.52816 13.52816 0 0 0 2.59564-4.50414 1.50731 1.50731 0 0 0 -.2959-1.48341l-1.78317-2.00017a10.51277 10.51277 0 0 0 0-1.77485l1.78317-2a1.50731 1.50731 0 0 0 .2959-1.48348 13.52826 13.52826 0 0 0 -2.59564-4.50414 1.50787 1.50787 0 0 0 -1.4374-.48319l-2.62063.54169a10.86327 10.86327 0 0 0 -1.54159-.88756l-.84159-2.5416zm-3.73305 7.20825a5.03744 5.03744 0 1 0 5.03713 5.03753 5.03583 5.03583 0 0 0 -5.03713-5.03753z" fill-rule="evenodd"></path></svg>