<!-- icon666.com - MILLIONS vector ICONS FREE --><svg fill="none" viewBox="0 0 32 32" xmlns="http://www.w3.org/2000/svg"><g clip-rule="evenodd" fill="rgb(0,0,0)" fill-rule="evenodd"><path d="m16 11c-2.2091 0-4 1.7909-4 4s1.7909 4 4 4 4-1.7909 4-4-1.7909-4-4-4zm-6 4c0-3.3137 2.6863-6 6-6s6 2.6863 6 6-2.6863 6-6 6-6-2.6863-6-6z" fill="rgb(0,0,0)" style="fill: rgb(184, 184, 184);"></path><path d="m16.0001 20.9993c-1.4774 0-2.9259.4091-4.185 1.1819s-2.27958 1.8792-2.94837 3.1965c-.25001.4925-.8519.689-1.34435.439-.49246-.25-.68899-.8519-.43898-1.3444.83599-1.6466 2.11161-3.0296 3.6855-3.9956 1.5738-.9661 3.3845-1.4774 5.2312-1.4774s3.6573.5113 5.2312 1.4774c1.5738.966 2.8494 2.349 3.6854 3.9956.25.4925.0535 1.0944-.4389 1.3444-.4925.25-1.0944.0535-1.3444-.439-.6688-1.3173-1.6893-2.4237-2.9484-3.1965s-2.7076-1.1819-4.1849-1.1819z" fill="rgb(0,0,0)" style="fill: rgb(184, 184, 184);"></path><path d="m24.2929 15.2929c.3905-.3905 1.0237-.3905 1.4142 0l2.2929 2.2929 2.2929-2.2929c.3905-.3905 1.0237-.3905 1.4142 0s.3905 1.0237 0 1.4142l-3 3c-.3905.3905-1.0237.3905-1.4142 0l-3-3c-.3905-.3905-.3905-1.0237 0-1.4142z" fill="rgb(0,0,0)" style="fill: rgb(184, 184, 184);"></path><path d="m3.29289 12.2929c.39053-.3905 1.02369-.3905 1.41422 0l3 3c.39052.3905.39052 1.0237 0 1.4142-.39053.3905-1.02369.3905-1.41422 0l-2.29289-2.2929-2.29289 2.2929c-.39053.3905-1.023693.3905-1.414217 0-.3905241-.3905-.3905241-1.0237 0-1.4142z" fill="rgb(0,0,0)" style="fill: rgb(184, 184, 184);"></path><path d="m11.4709 3.80129c2.6327-.97854 5.5116-1.07809 8.2056-.28375 2.6941.79434 5.0584 2.43985 6.7391 4.69021 1.6808 2.25035 2.5874 4.98455 2.5844 7.79325l-1-.0011h1v.0011 2.9989c0 .5523-.4477 1-1 1s-1-.4477-1-1v-3.0011c.0026-2.3766-.7646-4.6901-2.1868-6.59427-1.4221-1.90415-3.4227-3.2965-5.7023-3.96864-2.2796-.67213-4.7155-.5879-6.9432.24009-2.22775.828-4.12739 2.35521-5.4146 4.35302-.29913.4643-.91798.5982-1.38224.299-.46427-.2991-.59814-.91793-.29901-1.3822 1.52125-2.36108 3.76627-4.16598 6.39905-5.14451z" fill="rgb(0,0,0)" style="fill: rgb(184, 184, 184);"></path><path d="m4.00001 12c.55228 0 1 .4477 1 1v3.0011c-.0026 2.3766.76459 4.6901 2.18673 6.5943 1.42214 1.9041 3.42276 3.2965 5.70236 3.9686 2.2795.6722 4.7155.5879 6.9432-.2401s4.1274-2.3552 5.4146-4.353c.2991-.4643.918-.5982 1.3822-.299.4643.2991.5982.918.299 1.3822-1.5212 2.3611-3.7662 4.166-6.399 5.1445-2.6327.9786-5.5116 1.0781-8.2057.2838-2.69402-.7944-5.05836-2.4399-6.73907-4.6902-1.6806-2.2502-2.58727-4.9842-2.58432-7.7927 0-.0002 0 .0002 0 0v-2.9995c0-.5523.44771-1 1-1z" fill="rgb(0,0,0)" style="fill: rgb(184, 184, 184);"></path></g></svg>